<svg id="cloud-line" xmlns="http://www.w3.org/2000/svg" width="47.112" height="47.112" viewBox="0 0 47.112 47.112">
  <path id="Caminho_27" data-name="Caminho 27" d="M0,0H47.112V47.112H0Z" transform="translate(0 0)" fill="none"/>
  <path id="Caminho_28" data-name="Caminho 28" d="M32.412,39.293H12.782A11.778,11.778,0,0,1,8.872,16.4a13.741,13.741,0,1,1,27.451,0,11.778,11.778,0,0,1-3.91,22.891Zm0-23.556a9.815,9.815,0,1,0-19.618.477l.137,2.921-2.756.97a7.856,7.856,0,0,0,2.607,15.262h19.63a7.852,7.852,0,1,0-7.452-10.335l-3.726-1.243a11.784,11.784,0,0,1,11.177-8.052Z" transform="translate(0.959 1.93)" fill="#ea7011"/>
</svg>
