<svg id="cloud-windy-line" xmlns="http://www.w3.org/2000/svg" width="47.112" height="47.112" viewBox="0 0 47.112 47.112">
  <path id="Caminho_29" data-name="Caminho 29" d="M0,0H47.112V47.112H0Z" fill="none"/>
  <path id="Caminho_30" data-name="Caminho 30" d="M26.519,33.415V29.489H33.39a6.871,6.871,0,1,0-4.908-11.68v-.1a11.778,11.778,0,0,0-23.556,0v.014H1v-.014a15.7,15.7,0,0,1,30.344-5.695,10.8,10.8,0,1,1,2.045,21.4Zm-15.7,3.926h19.63v3.926H10.815Zm0-15.7h15.7v3.926h-15.7ZM2.963,29.489h19.63v3.926H2.963Z" transform="translate(0.963 1.919)" fill="#ea7011"/>
</svg>
