<svg id="facebook-box-fill" xmlns="http://www.w3.org/2000/svg" width="36.868" height="36.868" viewBox="0 0 36.868 36.868">
  <path id="Caminho_323" data-name="Caminho 323" d="M0,0H36.868V36.868H0Z" fill="none"/>
  <path id="Caminho_324" data-name="Caminho 324" d="M22.052,30.651V19.95h3.584l.536-4.16h-4.12V13.136c0-1.2.335-2.026,2.062-2.026h2.2V7.389a29.48,29.48,0,0,0-3.211-.164c-3.175,0-5.349,1.939-5.349,5.5V15.79H14.165v4.16h3.592v10.7H4.536A1.536,1.536,0,0,1,3,29.115V4.536A1.536,1.536,0,0,1,4.536,3H29.115a1.536,1.536,0,0,1,1.536,1.536V29.115a1.536,1.536,0,0,1-1.536,1.536Z" transform="translate(1.609 1.609)" fill="#f9f9f9"/>
</svg>
