<svg id="file-cloud-line" xmlns="http://www.w3.org/2000/svg" width="47.112" height="47.112" viewBox="0 0 47.112 47.112">
  <path id="Caminho_31" data-name="Caminho 31" d="M0,0H47.112V47.112H0Z" fill="none"/>
  <path id="Caminho_32" data-name="Caminho 32" d="M26.55,2,38.334,13.778l0,8.362a10.74,10.74,0,0,0-3.926-2.067l0-4.332H24.593V5.926H6.926V37.334h9.933a9.285,9.285,0,0,0,1.6,3.926H4.949a1.949,1.949,0,0,1-1.936-1.719L3,39.313V3.947A1.971,1.971,0,0,1,4.737,2.014L4.967,2Zm4.913,21.593a6.871,6.871,0,0,1,6.871,6.871l0,.2A5.4,5.4,0,0,1,37.192,41.25l-.33.01h-10.8l-.33-.01A5.4,5.4,0,0,1,24.6,30.666l-.006-.2A6.871,6.871,0,0,1,31.464,23.593Zm0,3.926A2.945,2.945,0,0,0,28.572,29.9l-.039.274-.014.285v3.18l-2.835.8a1.472,1.472,0,0,0,.157,2.878l.214.016H36.872a1.472,1.472,0,0,0,.373-2.893l-1.989-.556-.848-.241v-3.18l-.014-.283A2.945,2.945,0,0,0,31.464,27.519Z" transform="translate(2.889 1.926)" fill="#ea7011"/>
</svg>
