<svg id="instagram-fill" xmlns="http://www.w3.org/2000/svg" width="33" height="33" viewBox="0 0 33 33">
  <path id="Caminho_400" data-name="Caminho 400" d="M0,0H33V33H0Z" fill="none"/>
  <path id="Caminho_401" data-name="Caminho 401" d="M15.75,2c3.736,0,4.2.014,5.668.082a10.129,10.129,0,0,1,3.338.639,6.7,6.7,0,0,1,2.437,1.585,6.748,6.748,0,0,1,1.585,2.436,10.158,10.158,0,0,1,.639,3.339c.065,1.466.083,1.932.083,5.668s-.014,4.2-.083,5.668a10.165,10.165,0,0,1-.639,3.338,7.02,7.02,0,0,1-4.022,4.022,10.157,10.157,0,0,1-3.338.639c-1.466.065-1.932.083-5.668.083s-4.2-.014-5.668-.083a10.165,10.165,0,0,1-3.339-.639,7.02,7.02,0,0,1-4.022-4.022,10.122,10.122,0,0,1-.639-3.338C2.018,19.952,2,19.486,2,15.75s.014-4.2.082-5.668a10.122,10.122,0,0,1,.639-3.339A6.71,6.71,0,0,1,4.307,4.307,6.733,6.733,0,0,1,6.744,2.722a10.122,10.122,0,0,1,3.339-.639C11.548,2.018,12.014,2,15.75,2Zm0,6.875a6.875,6.875,0,1,0,6.875,6.875A6.875,6.875,0,0,0,15.75,8.875Zm8.938-.344a1.719,1.719,0,1,0-1.719,1.719A1.719,1.719,0,0,0,24.688,8.531ZM15.75,11.625a4.125,4.125,0,1,1-4.125,4.125A4.125,4.125,0,0,1,15.75,11.625Z" transform="translate(0.75 0.75)" fill="#f9f9f9"/>
</svg>
