<svg id="linkedin-box-fill" xmlns="http://www.w3.org/2000/svg" width="36.868" height="36.868" viewBox="0 0 36.868 36.868">
  <path id="Caminho_325" data-name="Caminho 325" d="M0,0H36.868V36.868H0Z" fill="none"/>
  <path id="Caminho_326" data-name="Caminho 326" d="M26.557,26.564H22.463V20.147c0-1.53-.031-3.5-2.135-3.5-2.134,0-2.459,1.665-2.459,3.387v6.529h-4.1V13.369h3.933v1.8h.054a4.319,4.319,0,0,1,3.883-2.131c4.148,0,4.916,2.731,4.916,6.285v7.243Zm-17.408-15a2.378,2.378,0,1,1,2.378-2.376,2.375,2.375,0,0,1-2.378,2.376Zm2.052,15H7.1V13.369H11.2V26.564ZM28.608,3H5.042A2.015,2.015,0,0,0,3,4.992V28.659a2.015,2.015,0,0,0,2.04,1.992H28.6a2.023,2.023,0,0,0,2.049-1.992V4.992A2.023,2.023,0,0,0,28.6,3h0Z" transform="translate(1.609 1.609)" fill="#f9f9f9"/>
</svg>
