<svg id="mail-check-line" xmlns="http://www.w3.org/2000/svg" width="47.112" height="47.112" viewBox="0 0 47.112 47.112">
  <path id="Caminho_33" data-name="Caminho 33" d="M0,0H47.112V47.112H0Z" fill="none"/>
  <path id="Caminho_34" data-name="Caminho 34" d="M41.26,24.593H37.334V11.319L21.771,25.257,5.926,11.276V34.408h19.63v3.926H3.963A1.963,1.963,0,0,1,2,36.371V4.963A1.963,1.963,0,0,1,3.963,3H39.3A1.963,1.963,0,0,1,41.26,4.963ZM6.929,6.926,21.75,20,36.357,6.926ZM35.371,40.3,28.43,33.356l2.778-2.776,4.164,4.165L42.312,27.8l2.776,2.776Z" transform="translate(1.926 2.889)" fill="#ea7011"/>
</svg>
