<svg id="shield-check-line" xmlns="http://www.w3.org/2000/svg" width="47.112" height="47.112" viewBox="0 0 47.112 47.112">
  <path id="Caminho_35" data-name="Caminho 35" d="M0,0H47.112V47.112H0Z" fill="none"/>
  <path id="Caminho_36" data-name="Caminho 36" d="M20.667,1,36.8,4.584A1.964,1.964,0,0,1,38.334,6.5V26.1a11.777,11.777,0,0,1-5.245,9.8L20.667,44.186,8.245,35.9A11.773,11.773,0,0,1,3,26.107V6.5A1.964,1.964,0,0,1,4.537,4.584Zm0,4.022L6.926,8.075V26.1a7.851,7.851,0,0,0,3.5,6.533l10.245,6.831,10.245-6.831a7.848,7.848,0,0,0,3.5-6.531V8.075L20.667,5.024Zm8.739,10.155,2.778,2.776L19.691,30.445l-8.329-8.329,2.776-2.776,5.551,5.551,9.717-9.717Z" transform="translate(2.889 0.963)" fill="#ea7011"/>
</svg>
